<?xml version="1.0" encoding="UTF-8"?>
<svg id="Layer_1" xmlns="http://www.w3.org/2000/svg" version="1.1" viewBox="0 0 180 180">
  <!-- Generator: Adobe Illustrator 29.8.2, SVG Export Plug-In . SVG Version: 2.1.1 Build 3)  -->
  <defs>
    <style>
      .st0 {
        fill: blue;
      }
    </style>
  </defs>
  <path class="st0" d="M11.24,57.93c.53-.44,1.2-.68,1.89-.72,1.97-.11,4.16.43,5.81,1.37,6.16,3.35,11.88,7.52,18.05,10.79,26.47,14.14,54.39,17.59,83.49,9.7,6.53-1.72,13.14-3.72,19.4-6.16,8.07-3.09,12.7-9.79,16.14-17.4,1.18-2.72,2.26-6.07,5.8-5.98,4.26.09,8.61.82,11.24,4.98.82,1.27,1.45,2.72,2,4.17,1.54,4.17.91,5.72-2.63,8.35-3.81,2.81-7.52,5.72-10.97,8.89-3.44,3.09-5.07,7.07-5.53,11.88-.82,10.42-5.8,18.68-14.14,25.03-17.22,13.33-37.17,16.23-58.2,15.14-16.41-.82-31.73-5.35-45.96-13.51-2.81-1.63-5.35-3.81-8.61-6.16-11.31-9.8-19.8-21.89-22.66-37.21-.37-1.95-.12-3.95.58-5.81.54-1.43,1.04-2.95,1.73-4.08.75-1.21,1.66-2.46,2.6-3.23h0Z"/>
</svg>