<?xml version="1.0" encoding="UTF-8" standalone="no"?>
<svg xmlns="http://www.w3.org/2000/svg" viewBox="0 0 26.458334 20.530758">
  <g transform="translate(87.996639,-60.157247)">
    <g transform="matrix(0.22711016,0,0,0.22711016,-164.69174,0.90420655)">
      <g>
        <path d="m 358.9,351.1 v -6 c 0,-2.3 -1.4,-3.8 -3.8,-3.8 -1.2,0 -2.5,0.4 -3.4,1.7 -0.7,-1.1 -1.7,-1.7 -3.2,-1.7 -1,0 -2,0.3 -2.8,1.4 v -1.2 h -2.1 v 9.6 h 2.1 v -5.3 c 0,-1.7 0.9,-2.5 2.3,-2.5 1.4,0 2.1,0.9 2.1,2.5 v 5.3 h 2.1 v -5.3 c 0,-1.7 1,-2.5 2.3,-2.5 1.4,0 2.1,0.9 2.1,2.5 v 5.3 z m 31.1,-9.6 h -3.4 v -2.9 h -2.1 v 2.9 h -1.9 v 1.9 h 1.9 v 4.4 c 0,2.2 0.9,3.5 3.3,3.5 0.9,0 1.9,-0.3 2.6,-0.7 l -0.6,-1.8 c -0.6,0.4 -1.3,0.5 -1.8,0.5 -1,0 -1.4,-0.6 -1.4,-1.6 v -4.3 h 3.4 z" fill="#1f1f1f"/>
      </g>
      <g>
        <rect height="56.6" width="31.5" y="268.6" x="380.2" style="fill:#ff5f00" />
        <path d="M 382.2,296.9 C 382.2,285.4 387.6,275.2 395.9,268.6 389.8,263.8 382.1,260.9 373.7,260.9 353.8,260.9 337.7,277 337.7,296.9 c 0,19.9 16.1,36 36,36 8.4,0 16.1,-2.9 22.2,-7.7 -8.3,-6.5 -13.7,-16.8 -13.7,-28.3 z" style="fill:#eb001b" />
        <path d="m 454.2,296.9 c 0,19.9 -16.1,36 -36,36 -8.4,0 -16.1,-2.9 -22.2,-7.7 8.4,-6.6 13.7,-16.8 13.7,-28.3 0,-11.5 -5.4,-21.7 -13.7,-28.3 6.1,-4.8 13.8,-7.7 22.2,-7.7 19.9,0 36,16.2 36,36 z" style="fill:#f79e1b" />
      </g>
    </g>
  </g>
</svg>
