<?xml version="1.0" encoding="utf-8"?>
<svg version="1.1" xmlns="http://www.w3.org/2000/svg" viewBox="0 0 381 100" xml:space="preserve">
<g>
	<g>
		<path fill="#000E8F" d="M138.989,46.455c0-25.014-31.079-45.404-69.418-45.404c-38.337,0-69.415,20.391-69.415,45.404c0,0.646-0.008,2.432-0.008,2.658c0,26.536,27.164,48.028,69.414,48.028c42.512,0,69.427-21.486,69.427-48.023C138.989,48.19,138.989,47.657,138.989,46.455z"/>
		<ellipse fill="#00A0C6" cx="69.585" cy="46.433" rx="66.746" ry="42.699"/>
	</g>
	<g>
		<path fill="#000E8F" d="M375.526,17.525c-2.505-3.14-6.309-4.708-11.413-4.708c-5.099,0-8.903,1.568-11.407,4.708c-2.508,3.138-3.762,6.847-3.762,11.126c0,4.355,1.254,8.078,3.762,11.177c2.504,3.088,6.309,4.638,11.407,4.638c5.104,0,8.908-1.55,11.413-4.638c2.508-3.099,3.759-6.821,3.759-11.177C379.285,24.372,378.034,20.663,375.526,17.525z"/>
		<path fill="#000E8F" d="M311.491,14.9c-2.54-1.288-5.449-1.938-8.722-1.938c-5.03,0-8.581,1.313-10.647,3.933c-1.3,1.679-2.029,3.817-2.199,6.422h7.517c0.185-1.149,0.554-2.06,1.108-2.732c0.775-0.91,2.093-1.365,3.956-1.365c1.665,0,2.924,0.229,3.785,0.698c0.855,0.463,1.287,1.307,1.287,2.524c0,1.004-0.558,1.738-1.68,2.215c-0.625,0.273-1.661,0.501-3.114,0.683l-2.664,0.328c-3.026,0.381-5.324,1.021-6.88,1.915c-2.847,1.64-4.268,4.287-4.268,7.949c0,2.82,0.88,5.004,2.652,6.543c1.763,1.539,4.01,2.185,6.72,2.311c16.997,0.759,16.805-8.957,16.961-10.978V22.224C315.304,18.638,314.031,16.194,311.491,14.9z"/>
	</g>
</g>
</svg>
