<?xml version="1.0" encoding="utf-8"?>
<!-- Generator: Adobe Illustrator 15.1.0, SVG Export Plug-In . SVG Version: 6.00 Build 0)  -->
<!DOCTYPE svg PUBLIC "-//W3C//DTD SVG 1.1//EN" "http://www.w3.org/Graphics/SVG/1.1/DTD/svg11.dtd" [
	<!ENTITY ns_extend "http://ns.adobe.com/Extensibility/1.0/">
	<!ENTITY ns_ai "http://ns.adobe.com/AdobeIllustrator/10.0/">
	<!ENTITY ns_graphs "http://ns.adobe.com/Graphs/1.0/">
	<!ENTITY ns_vars "http://ns.adobe.com/Variables/1.0/">
	<!ENTITY ns_imrep "http://ns.adobe.com/ImageReplacement/1.0/">
	<!ENTITY ns_sfw "http://ns.adobe.com/SaveForWeb/1.0/">
	<!ENTITY ns_custom "http://ns.adobe.com/GenericCustomNamespace/1.0/">
	<!ENTITY ns_adobe_xpath "http://ns.adobe.com/XPath/1.0/">
]>
<svg version="1.1" xmlns:x="&ns_extend;" xmlns:i="&ns_ai;" xmlns:graph="&ns_graphs;"
	 xmlns="http://www.w3.org/2000/svg" xmlns:xlink="http://www.w3.org/1999/xlink" viewBox="0 0 98 28" xml:space="preserve">
<g id="visa">
	<g id="g12" transform="translate(143.448,67.609)">
		<path id="path14" fill="#2C3B92" d="M-112.843-39.67l4.399-27.46h7.032l-4.399,27.46H-112.843"/>
	</g>
	<g id="g16" transform="translate(224.353,133.66)">
		<path id="path18" fill="#2C3B92" d="M-161.208-132.508c-1.391-0.551-3.577-1.152-6.301-1.152c-6.952,0-11.847,3.727-11.887,9.063c-0.044,3.947,3.492,6.148,6.158,7.46c2.74,1.345,3.661,2.206,3.65,3.408c-0.02,1.839-2.188,2.682-4.209,2.682c-2.815,0-4.311-0.415-6.624-1.44l-0.904-0.437l-0.983,6.147c1.64,0.765,4.679,1.429,7.834,1.464c7.389,0,12.19-3.682,12.246-9.38c0.026-3.13-1.848-5.503-5.906-7.462c-2.458-1.273-3.966-2.117-3.949-3.405c0.002-1.142,1.274-2.363,4.029-2.363c2.3-0.037,3.966,0.497,5.263,1.055l0.631,0.314L-161.208-132.508"/>
	</g>
	<g id="g20" transform="translate(247.634,91.616)">
		<path id="path22" fill="#2C3B92" d="M-175.125-73.413c0.583-1.578,2.801-7.675,2.801-7.675c-0.041,0.072,0.579-1.591,0.934-2.62l0.475,2.368c0,0,1.349,6.555,1.627,7.927C-170.383-73.413-173.752-73.413-175.125-73.413z M-166.45-91.11h-5.435c-1.686,0-2.947,0.486-3.686,2.276l-10.443,25.167h7.386c0,0,1.205-3.386,1.478-4.129c0.805,0,7.982,0.015,9.007,0.015c0.21,0.958,0.856,4.114,0.856,4.114h6.527L-166.45-91.11"/>
	</g>
	<g id="g24" transform="translate(128.78,135.265)">
		<path id="path26" fill="#2C3B92" d="M-104.074-134.764l-6.883,18.722l-0.737-3.805c-1.282-4.385-5.275-9.138-9.741-11.519l6.296,24.016l7.442-0.004l11.074-27.409H-104.074"/>
	</g>
	<g id="g28" transform="translate(95.781,135.311)">
		<path id="path30" fill="#F6961E" d="M-84.347-134.828h-11.34l-0.094,0.569c8.824,2.275,14.663,7.766,17.085,14.366l-2.464-12.618C-81.585-134.251-82.82-134.767-84.347-134.828"/>
	</g>
</g>
</svg>
